<svg xmlns="http://www.w3.org/2000/svg" xmlns:xlink="http://www.w3.org/1999/xlink" viewBox="0 0 370.03 407.34"><defs><style>.cls-1{fill:url(#radial-gradient);}.cls-2{fill:#d7defa;}.cls-3{fill:#cdd7fc;}.cls-4{fill:#adc4ff;}.cls-5{fill:#6e6ccf;}.cls-6{fill:url(#linear-gradient);}.cls-7{fill:url(#linear-gradient-2);}.cls-8{fill:#1b3790;}.cls-9{fill:url(#linear-gradient-3);}.cls-10{fill:#b56980;}.cls-11{fill:url(#linear-gradient-4);}.cls-12{fill:url(#linear-gradient-5);}.cls-13{fill:#002065;}.cls-14{fill:#edf1ff;}.cls-15{fill:url(#linear-gradient-6);}.cls-16{fill:url(#linear-gradient-7);}</style><radialGradient id="radial-gradient" cx="1194.46" cy="989.44" r="252.76" gradientTransform="translate(1084.95 -781.59) rotate(90.21) scale(1 1.06)" gradientUnits="userSpaceOnUse"><stop offset="0" stop-color="#fcf3e5"/><stop offset="1" stop-color="#e3e8fc"/></radialGradient><linearGradient id="linear-gradient" x1="146.43" y1="156.81" x2="146.43" y2="130.33" gradientUnits="userSpaceOnUse"><stop offset="0" stop-color="#abbfff"/><stop offset="1" stop-color="#7a84e6"/></linearGradient><linearGradient id="linear-gradient-2" x1="157.76" y1="115.77" x2="234.02" y2="-52.19" gradientUnits="userSpaceOnUse"><stop offset="0" stop-color="#e5d0f5" stop-opacity="0"/><stop offset="1" stop-color="#fbfbff"/></linearGradient><linearGradient id="linear-gradient-3" x1="192.18" y1="203.26" x2="244.68" y2="157.76" gradientUnits="userSpaceOnUse"><stop offset="0" stop-color="#baa7ff" stop-opacity="0"/><stop offset="1" stop-color="#a6a7ff"/></linearGradient><linearGradient id="linear-gradient-4" x1="307.85" y1="1285.26" x2="200.38" y2="1327.03" gradientTransform="matrix(0.97, 0.35, -0.11, 0.99, -24.86, -1033.64)" gradientUnits="userSpaceOnUse"><stop offset="0" stop-color="#f1b5b0"/><stop offset="1" stop-color="#be7180"/></linearGradient><linearGradient id="linear-gradient-5" x1="255.59" y1="1316.12" x2="315.99" y2="1240.69" gradientTransform="matrix(0.97, 0.35, -0.11, 0.99, -24.86, -1033.64)" gradientUnits="userSpaceOnUse"><stop offset="0" stop-color="#ffcda6" stop-opacity="0"/><stop offset="1" stop-color="#fff8b0"/></linearGradient><linearGradient id="linear-gradient-6" x1="223.97" y1="267.51" x2="250.05" y2="274.35" gradientUnits="userSpaceOnUse"><stop offset="0" stop-color="#fff" stop-opacity="0"/><stop offset="1" stop-color="#f2fdff"/></linearGradient><linearGradient id="linear-gradient-7" x1="177.91" y1="294.22" x2="245.78" y2="183.13" gradientUnits="userSpaceOnUse"><stop offset="0" stop-color="#baa7ff" stop-opacity="0"/><stop offset="1" stop-color="#ada7ff" stop-opacity="0.63"/></linearGradient></defs><title>Add Employee</title><g id="Layer_2" data-name="Layer 2"><g id="Layer_13" data-name="Layer 13"><path class="cls-1" d="M364.88,399.19c4.72-4.53,5.07-11.83,5.1-18.38.38-67.35-1.66-138.08-1.28-205.43-.57-7.81-6.9-14.26-14.12-17.28s-15.27-3.25-23.1-3.38c-18.61-.3,15.42-.67-56.37-.67a13.78,13.78,0,0,1-9.22-3.53c-7.55-7-2.21-26.79-5.78-36.45-3.19-8.61-14.22-10.67-23.37-11.39-14.85-1.16-183.94-3.26-200.11-3.26-11.76,0-25.75-.8-32.37,8.91C.93,113.22,0,119.42,0,125.34,0,183.47,1.68,274.88,1.68,334.7c0,7.34,1.94,15.82,8.39,19.32,3.42,1.86,7.5,1.82,11.39,1.73,41.37-.91,12.73,1.18,54.1.27,12.9-.28,28.78,1.22,34,13.05,4.81,11-2.2,27,7.46,34.15,3.78,2.8,8.84,2.93,13.54,2.95,48.86.2,167.71-2.61,216.57-2.41C353.37,403.78,360.34,403.55,364.88,399.19Z"/><path class="cls-2" d="M341.18,325.63c-.14-1.93-.25-4.79-7.53-5.24,0-2.09.2-4.05.12-5.55,2.34-3.29,3.12-17.72-2.93-36.77-11.14-35-33.66-41.55-45.59-42.43,7.07-1.89,11.59-5.41,14.45-9.79a4.61,4.61,0,0,0,2.27,1.22c2.41.47,4.72-1.35,5.78-3.19.14-.23,2.14-3.83.09-6.15a5.16,5.16,0,0,0-4.4-1.35,60.72,60.72,0,0,0,.95-13.43c-.27-12-4.65-30.91-25.89-32.54l.1-.11c4.56-5.14,13.1-3.42,13.1-3.42s-7.56-9.52-15.57-6.62-5.86,10.3-5.86,10.3h0c-28.46,2.79-23.31,25.65-22.36,39.87-3.43,13.76-4.26,26.16,18.38,26.92-16.71,4.24-36.45,19.32-14.66,68.94,20.44,46.54,23.89,66.06,23.89,66.06S311.72,356,319,304.09c.55-3.91.9-7.63,1.1-11.19,3.79,6.32,6.24,11.48,10.34,20-.63,1.12-.67,3.44-.53,7.45l.57,0c-8.25.22-7.56,2.93-7.72,4.82-1,12.52-.35,32.69.58,43.21.3,3.32,5,3.63,8.76,3.57,4.27-.06,7.67-.88,7.93-4.32C341,355.3,341.81,334.21,341.18,325.63Z"/><path class="cls-3" d="M292.85,351.5c-.35-29.94-.2-37.94-6.08-38.07h-.13c-1.29,0-2.7,0-4.12,0,0-.55,0-1.06,0-1.54,2.78-5.47,3.38-24.1-4.33-48.36-4.49-14.15-11.46-39.67-33.59-50.41a47.85,47.85,0,0,0-12.81-4.09,35.84,35.84,0,0,0,13.39-8.88c11.47-12.27,9.81-29,9.26-34.42-.63-6.39-2.15-21.57-14.76-30.94-7.17-5.33-14.83-6.35-20-6.68a9.87,9.87,0,0,0,5.14-1.2c2.31-1.3,2.79-3,4.73-3.51,1.08-.31,2.75-.32,5.21,1.21a13.69,13.69,0,0,0-4.36-6.42c-5.55-4.42-15.22-4.23-19.76,1.33a12.91,12.91,0,0,0-2.59,8.62c-7.37.69-17,3.15-24.12,11-9.73,10.7-11.47,27.72-4.62,43-.26.5-5.52,11.11.51,20.76,4.76,7.61,14.45,11.29,23.78,8.78-29.28,7.36-32.92,41.21-26.4,96C184.49,369.2,255.94,383,255.94,383s-11.06-18.3.75-59.25a212.53,212.53,0,0,0,7.16-40.36c5,8.29,7.48,15.51,13.51,26.15,0,1.05,0,2.39,0,4.08l-1.38,0c-9,.24-10,3.67-9,27.78,1.05,25.2.67,32,7.14,33a25.46,25.46,0,0,0,6.35-.11C292.43,373.11,293.16,377.74,292.85,351.5Z"/><path class="cls-4" d="M82.65,263.87c-2.68,10.49-7.26,22-15.37,20.42-2.47-5.34-4.6-16.59-5.6-30.17a19,19,0,0,1,13,1.71A18.17,18.17,0,0,1,82.65,263.87Z"/><path class="cls-4" d="M232.92,283.1a8.8,8.8,0,0,1-5.75.42c-6.24-1.67-11.31-10.09-14.7-18.78a14.11,14.11,0,0,1,7.23-8.53,20.26,20.26,0,0,1,3.52-1.36,16.16,16.16,0,0,1,10.4.33C234.57,268.75,234.4,279.46,232.92,283.1Z"/><path class="cls-5" d="M233.63,255.18c-2.93-1.13-7.83-2-13.92,1a14.11,14.11,0,0,0-7.23,8.53c-.51-1.31-1-2.62-1.4-3.92-.29-.86-.56-1.71-.81-2.54a241.89,241.89,0,0,1-3.75,28.27,87.05,87.05,0,0,1-16.27,2.71,58,58,0,0,1-16.35-1.34c-10.07-2.3-18.06-13.41-20.77-23.38L139.8,265c-.48,3-2.15,14.5-11.75,22.93-6,5.28-25.25,8.39-37.66,4.66-1.73-9.14-3.22-25-4.42-44-.6,2-1.55,8.43-3.31,15.28a18.17,18.17,0,0,0-8-8,19,19,0,0,0-13-1.71c-1.82-24.62,0-56.88,10.24-75.38,8.16-14.8,24.69-29.87,52.42-34.33,1.79-.29,2.77-3.25,4.67-3.32,4.38-.13,9-.14,13.89-.06a129.87,129.87,0,0,1,21,1.93c1.67.3,1.93,2.14,3.06,3.06a2.24,2.24,0,0,0,.9.45c2.21.52,4.36,1,6.45,1.43,14.63,3.15,26.62,5.59,39.39,21.72,8.73,11,15.24,42.11,18.42,69.14C232.75,244.49,233.27,250,233.63,255.18Z"/><path class="cls-4" d="M206.52,286.54c-6.59,28.06-10.57,63.38-3.46,95.31-54.88-2.26-106.37-34.94-112.68-89.31,12.42,3.73,31.66.62,37.66-4.66,9.6-8.43,11.28-19.9,11.76-22.93l13.33-.41c2.71,10,10.7,21.08,20.77,23.37C185.41,290.53,195.64,289.3,206.52,286.54Z"/><path class="cls-6" d="M163.85,136.52V143s-2.06,8-17.48,7.42S129,141.1,129,141.1v-4.58Z"/><path class="cls-4" d="M199.09,108.19a25.15,25.15,0,0,0-.17,9.78c.65,3.5,1.79,7.61-.61,10.94-1.43,2-6.58,5.6-16,8.47-7.86,2.37-18.72,4.24-32.9,4.24-24.88,0-42.69-2.48-48.61-10-5.42-6.88-1.05-11.75-7-22.3l-.5-.78c-2-3.22-15.2-24.88-6.76-50.8,6.13-18.85,20.08-28.86,26.17-32.6,3-1.84,20.83-12.36,43.44-8.31a57.19,57.19,0,0,1,6.39,1.52c33,9.81,42,43.57,42.5,45.53,1.23,4.9,5.2,21.95-3.52,39.88Q200.37,106.1,199.09,108.19Z"/><path class="cls-4" d="M99.47,115.41c-2.82-4.52-8-5.26-11.22-5.33-6.38-.13-10,8.65-1.84,14.08,2.65,1.75,6,3.2,10.24,2.17,2.44-.6,3.85-3.55,3.92-4.56"/><path class="cls-4" d="M195.11,114c.58-.54,4.15-6.46,10.21-7.21a7.83,7.83,0,0,1,7.35,3.15c2.08,3.2.51,7.54-1.63,9.84-2.62,2.82-6.42,3-8.1,3a15.07,15.07,0,0,1-5.59-.85"/><path class="cls-7" d="M199.09,108.19a25.15,25.15,0,0,0-.17,9.78c.65,3.5,1.79,7.61-.61,10.94-1.43,2-6.58,5.6-16,8.47a22.56,22.56,0,0,0,11.9-13.55c2-6.69.69-14.32-3.42-19.27-3.92-4.73-7.94-4.07-9.45-8-1.77-4.68,2.67-8.47,4.95-14.59,4.65-12.44-1.38-29.19-9.78-38-9.54-10-21.38-11-22.31-19.56a12.18,12.18,0,0,1,2-7.57,57.19,57.19,0,0,1,6.39,1.52c33,9.81,42,43.57,42.5,45.53,1.23,4.9,5.2,21.95-3.52,39.88Q200.37,106.1,199.09,108.19Z"/><path class="cls-5" d="M155,21.41c3.21-3.06,3.07-4.55,5.41-6.46,2-1.66,5.59-3.39,12.27-2.77-1.12-2.07-4.81-8.23-12.24-10.89-8.37-3-19.46-.77-24.19,6.63-2.31,3.61-3.69,9.67-.71,14a11.6,11.6,0,0,0,10.31,4.71C149.87,26.3,152.63,23.68,155,21.41Z"/><path class="cls-8" d="M145.11,127.44a17.73,17.73,0,0,1-6.27-1l.64-1.68c3.92,1.48,9.67,1.13,16.2-1l.55,1.71A36.63,36.63,0,0,1,145.11,127.44Z"/><path class="cls-8" d="M170.58,116.45a18,18,0,0,1-8.58-2.1,15.65,15.65,0,0,1-7.54-9.27c-2.12-6.48.13-13.73,5.72-18.48s10.84-5.23,14.36-4.88A15.69,15.69,0,0,1,187,90.19a19,19,0,0,1,1.59,9,17.74,17.74,0,0,1-.86,5.31,17,17,0,0,1-8.94,10.11A19.59,19.59,0,0,1,170.58,116.45Zm2.22-33A17.47,17.47,0,0,0,161.35,88c-5,4.21-7,10.86-5.18,16.55h0a14,14,0,0,0,6.69,8.25,17.46,17.46,0,0,0,15.19.24,15.26,15.26,0,0,0,8-9.06,16,16,0,0,0,.76-4.79A17.47,17.47,0,0,0,185.4,91a13.86,13.86,0,0,0-11.05-7.44A15,15,0,0,0,172.8,83.44Z"/><path class="cls-8" d="M122.87,117.4a18.8,18.8,0,0,1-8.76-2.09A15.76,15.76,0,0,1,106.4,106h0c-2.14-6.38.22-13.81,5.85-18.48s11.09-5.23,14.67-4.87a16,16,0,0,1,12.76,8.45,18.73,18.73,0,0,1,1.62,9.05,17.48,17.48,0,0,1-.87,5.3,17.11,17.11,0,0,1-9.16,10.11A20.29,20.29,0,0,1,122.87,117.4Zm-14.76-11.94a14,14,0,0,0,6.84,8.26,18.32,18.32,0,0,0,15.58.24,15.16,15.16,0,0,0,8.19-9.07,15.44,15.44,0,0,0,.78-4.78,17,17,0,0,0-1.44-8.19,14.23,14.23,0,0,0-11.32-7.45c-3.24-.33-8.19.19-13.34,4.46s-7.19,10.85-5.29,16.53l-.86.29Z"/><path class="cls-8" d="M154.87,100.24a31.6,31.6,0,0,0-14.28-.46L140.24,98a33.64,33.64,0,0,1,15.1.49Z"/><path class="cls-9" d="M232.07,238.76l.21,1.84c-7.18-6.41-9.77-12.44-10.81-16.72-2.41-9.85,1.86-16.72-2.88-22.08-3.42-3.87-6.67-1.48-10.76-5.19-7.48-6.78-.05-17.91-6.72-25.35-5.83-6.5-14.8-1.7-22.47-9-4.48-4.27-5.81-10.08-6.29-13.88l1.91-.45c14.63,3.15,26.63,5.59,39.39,21.72C222.39,180.67,228.89,211.73,232.07,238.76Z"/><path class="cls-10" d="M66.23,298.28c.09-14.69-1.53-18.1,5.8-18.13,6,0,4.77,3.59,5.19,17.51Z"/><path class="cls-11" d="M71.61,406.86c-4.8.49-8.55.68-11.52.2-11.72-1.85-11-14.22-12.93-60-1.83-43.76-.06-50,16.36-50.42,5.34-.13,13.06-.39,19.24-.37H83c10.66.24,10.38,14.76,11,69.1C94.58,413,93.26,404.64,71.61,406.86Z"/><path class="cls-12" d="M71.61,406.86c-4.8.49-8.55.68-11.52.2,0-1.15,0-2.33.08-3.48.31-6,2-11.85,4.11-11.84.63,0,1.26.49,1.87.18,1.31-.62,2.06-4.43,2.44-8s.6-7.44,1.54-10c1.25-3.4,3.26-3.14,5-2.15s3.59,2.46,5.23.72c2.31-2.45,3.18-10.13,3.55-17,1.06-19.81.19-39.77-.92-59.27,10.66.24,10.38,14.76,11,69.1C94.58,413,93.26,404.64,71.61,406.86Z"/><path class="cls-13" d="M140.42,240.26c-20.24-82.46-19.34-94.78-16.3-96.3l.45.9c-3.87,1.93,1.79,33.94,16.82,95.16Z"/><path class="cls-13" d="M157.24,240.66l-1-.26c10.61-38.77,16.95-86.62,12.34-93.09a1.16,1.16,0,0,0-.84-.57l.07-1a2.14,2.14,0,0,1,1.59,1C174.27,153.52,168.12,200.92,157.24,240.66Z"/><path class="cls-14" d="M162.9,237.85c-10-.25-18.21-.19-28.29-.06.38,13.39.21,25.74.21,39.3q14.51-.39,29-.67C163.86,263.47,162.9,237.85,162.9,237.85Z"/><path class="cls-15" d="M232.92,283.1a4.27,4.27,0,0,1-6.58-1.85,15.91,15.91,0,0,1-.57-5.59c.32-4.17,2.21-6,2.75-8.67.51-2.5,0-6.39-5.3-12.14a16.16,16.16,0,0,1,10.4.33C234.57,268.75,234.4,279.46,232.92,283.1Z"/><path class="cls-16" d="M210.27,258.28s-2.1,19.72-3.75,28.27a87.05,87.05,0,0,1-16.27,2.71,17.11,17.11,0,0,1-2.35-5.65c-2-9.4,3.95-18.8,3.47-28.4-.26-5.23-2.42-10.2-2.9-15.41s5.44-5.25,10.37-14.72C203.9,242.15,210.27,258.28,210.27,258.28Z"/></g></g></svg>